<svg xmlns="http://www.w3.org/2000/svg" version="1.1" xmlns:xlink="http://www.w3.org/1999/xlink" xmlns:svgjs="http://svgjs.com/svgjs" width="700" height="3000" preserveAspectRatio="none" viewBox="0 0 700 3000">
    <g mask="url(&quot;#SvgjsMask1114&quot;)" fill="none">
        <rect width="700" height="3000" x="0" y="0" fill="url(#SvgjsLinearGradient1115)"></rect>
        <path d="M76.15 2488.11L167.09 2540.61L167.09 2645.61L76.15 2698.11L-14.79 2645.61L-14.79 2540.61zM258.02 283.11L348.96 335.61L348.96 440.61L258.02 493.11L167.09 440.61L167.09 335.61zM348.96 1385.61L439.89 1438.11L439.89 1543.11L348.96 1595.61L258.02 1543.11L258.02 1438.11zM258.02 2173.11L348.96 2225.61L348.96 2330.61L258.02 2383.11L167.09 2330.61L167.09 2225.61zM348.96 2645.61L439.89 2698.11L439.89 2803.11L348.96 2855.61L258.02 2803.11L258.02 2698.11zM258.02 2803.11L348.96 2855.61L348.96 2960.61L258.02 3013.11L167.09 2960.61L167.09 2855.61zM439.89 598.11L530.83 650.61L530.83 755.61L439.89 808.11L348.96 755.61L348.96 650.61zM530.83 755.61L621.76 808.11L621.76 913.11L530.83 965.61L439.89 913.11L439.89 808.11zM439.89 1543.11L530.83 1595.61L530.83 1700.61L439.89 1753.11L348.96 1700.61L348.96 1595.61zM530.83 2330.61L621.76 2383.11L621.76 2488.11L530.83 2540.61L439.89 2488.11L439.89 2383.11zM439.89 2488.11L530.83 2540.61L530.83 2645.61L439.89 2698.11L348.96 2645.61L348.96 2540.61zM530.83 2960.61L621.76 3013.11L621.76 3118.11L530.83 3170.61L439.89 3118.11L439.89 3013.11zM621.76 283.11L712.7 335.61L712.7 440.61L621.76 493.11L530.83 440.61L530.83 335.61zM621.76 2173.11L712.7 2225.61L712.7 2330.61L621.76 2383.11L530.83 2330.61L530.83 2225.61zM621.76 2488.11L712.7 2540.61L712.7 2645.61L621.76 2698.11L530.83 2645.61L530.83 2540.61zM621.76 2803.11L712.7 2855.61L712.7 2960.61L621.76 3013.11L530.83 2960.61L530.83 2855.61z" stroke="rgba(235, 35, 147, 0.51)" stroke-width="2"></path>
        <path d="M89.59 237.61L145.89 270.11L145.89 335.11L89.59 367.61L33.3 335.11L33.3 270.11zM89.59 432.61L145.89 465.11L145.89 530.11L89.59 562.61L33.3 530.11L33.3 465.11zM33.3 725.11L89.59 757.61L89.59 822.61L33.3 855.11L-22.99 822.61L-22.99 757.61zM33.3 920.11L89.59 952.61L89.59 1017.61L33.3 1050.11L-22.99 1017.61L-22.99 952.61zM89.59 1017.61L145.89 1050.11L145.89 1115.11L89.59 1147.61L33.3 1115.11L33.3 1050.11zM33.3 1895.11L89.59 1927.61L89.59 1992.61L33.3 2025.11L-22.99 1992.61L-22.99 1927.61zM33.3 2090.11L89.59 2122.61L89.59 2187.61L33.3 2220.11L-22.99 2187.61L-22.99 2122.61zM33.3 2285.11L89.59 2317.61L89.59 2382.61L33.3 2415.11L-22.99 2382.61L-22.99 2317.61zM33.3 2480.11L89.59 2512.61L89.59 2577.61L33.3 2610.11L-22.99 2577.61L-22.99 2512.61zM89.59 2577.61L145.89 2610.11L145.89 2675.11L89.59 2707.61L33.3 2675.11L33.3 2610.11zM33.3 2870.11L89.59 2902.61L89.59 2967.61L33.3 3000.11L-22.99 2967.61L-22.99 2902.61zM89.59 2967.61L145.89 3000.11L145.89 3065.11L89.59 3097.61L33.3 3065.11L33.3 3000.11zM145.89 -54.89L202.18 -22.39L202.18 42.61L145.89 75.11L89.59 42.61L89.59 -22.39zM202.18 42.61L258.47 75.11L258.47 140.11L202.18 172.61L145.89 140.11L145.89 75.11zM145.89 335.11L202.18 367.61L202.18 432.61L145.89 465.11L89.59 432.61L89.59 367.61zM145.89 530.11L202.18 562.61L202.18 627.61L145.89 660.11L89.59 627.61L89.59 562.61zM145.89 1115.11L202.18 1147.61L202.18 1212.61L145.89 1245.11L89.59 1212.61L89.59 1147.61zM202.18 1212.61L258.47 1245.11L258.47 1310.11L202.18 1342.61L145.89 1310.11L145.89 1245.11zM145.89 1310.11L202.18 1342.61L202.18 1407.61L145.89 1440.11L89.59 1407.61L89.59 1342.61zM202.18 1407.61L258.47 1440.11L258.47 1505.11L202.18 1537.61L145.89 1505.11L145.89 1440.11zM145.89 1505.11L202.18 1537.61L202.18 1602.61L145.89 1635.11L89.59 1602.61L89.59 1537.61zM145.89 1700.11L202.18 1732.61L202.18 1797.61L145.89 1830.11L89.59 1797.61L89.59 1732.61zM202.18 1797.61L258.47 1830.11L258.47 1895.11L202.18 1927.61L145.89 1895.11L145.89 1830.11zM202.18 2187.61L258.47 2220.11L258.47 2285.11L202.18 2317.61L145.89 2285.11L145.89 2220.11zM202.18 2382.61L258.47 2415.11L258.47 2480.11L202.18 2512.61L145.89 2480.11L145.89 2415.11zM314.77 42.61L371.06 75.11L371.06 140.11L314.77 172.61L258.47 140.11L258.47 75.11zM314.77 432.61L371.06 465.11L371.06 530.11L314.77 562.61L258.47 530.11L258.47 465.11zM258.47 725.11L314.77 757.61L314.77 822.61L258.47 855.11L202.18 822.61L202.18 757.61zM314.77 1797.61L371.06 1830.11L371.06 1895.11L314.77 1927.61L258.47 1895.11L258.47 1830.11zM258.47 2285.11L314.77 2317.61L314.77 2382.61L258.47 2415.11L202.18 2382.61L202.18 2317.61zM314.77 2382.61L371.06 2415.11L371.06 2480.11L314.77 2512.61L258.47 2480.11L258.47 2415.11zM258.47 2675.11L314.77 2707.61L314.77 2772.61L258.47 2805.11L202.18 2772.61L202.18 2707.61zM314.77 2967.61L371.06 3000.11L371.06 3065.11L314.77 3097.61L258.47 3065.11L258.47 3000.11zM427.35 432.61L483.65 465.11L483.65 530.11L427.35 562.61L371.06 530.11L371.06 465.11zM371.06 530.11L427.35 562.61L427.35 627.61L371.06 660.11L314.77 627.61L314.77 562.61zM427.35 627.61L483.65 660.11L483.65 725.11L427.35 757.61L371.06 725.11L371.06 660.11zM371.06 725.11L427.35 757.61L427.35 822.61L371.06 855.11L314.77 822.61L314.77 757.61zM371.06 920.11L427.35 952.61L427.35 1017.61L371.06 1050.11L314.77 1017.61L314.77 952.61zM427.35 1017.61L483.65 1050.11L483.65 1115.11L427.35 1147.61L371.06 1115.11L371.06 1050.11zM427.35 1212.61L483.65 1245.11L483.65 1310.11L427.35 1342.61L371.06 1310.11L371.06 1245.11zM371.06 1310.11L427.35 1342.61L427.35 1407.61L371.06 1440.11L314.77 1407.61L314.77 1342.61zM427.35 1407.61L483.65 1440.11L483.65 1505.11L427.35 1537.61L371.06 1505.11L371.06 1440.11zM371.06 1505.11L427.35 1537.61L427.35 1602.61L371.06 1635.11L314.77 1602.61L314.77 1537.61zM371.06 2870.11L427.35 2902.61L427.35 2967.61L371.06 3000.11L314.77 2967.61L314.77 2902.61zM539.94 432.61L596.23 465.11L596.23 530.11L539.94 562.61L483.65 530.11L483.65 465.11zM539.94 627.61L596.23 660.11L596.23 725.11L539.94 757.61L483.65 725.11L483.65 660.11zM483.65 725.11L539.94 757.61L539.94 822.61L483.65 855.11L427.35 822.61L427.35 757.61zM539.94 822.61L596.23 855.11L596.23 920.11L539.94 952.61L483.65 920.11L483.65 855.11zM483.65 1115.11L539.94 1147.61L539.94 1212.61L483.65 1245.11L427.35 1212.61L427.35 1147.61zM539.94 1212.61L596.23 1245.11L596.23 1310.11L539.94 1342.61L483.65 1310.11L483.65 1245.11zM483.65 1505.11L539.94 1537.61L539.94 1602.61L483.65 1635.11L427.35 1602.61L427.35 1537.61zM539.94 1992.61L596.23 2025.11L596.23 2090.11L539.94 2122.61L483.65 2090.11L483.65 2025.11zM483.65 2285.11L539.94 2317.61L539.94 2382.61L483.65 2415.11L427.35 2382.61L427.35 2317.61zM483.65 2675.11L539.94 2707.61L539.94 2772.61L483.65 2805.11L427.35 2772.61L427.35 2707.61zM539.94 2772.61L596.23 2805.11L596.23 2870.11L539.94 2902.61L483.65 2870.11L483.65 2805.11zM539.94 2967.61L596.23 3000.11L596.23 3065.11L539.94 3097.61L483.65 3065.11L483.65 3000.11zM596.23 -54.89L652.53 -22.39L652.53 42.61L596.23 75.11L539.94 42.61L539.94 -22.39zM652.53 42.61L708.82 75.11L708.82 140.11L652.53 172.61L596.23 140.11L596.23 75.11zM596.23 140.11L652.53 172.61L652.53 237.61L596.23 270.11L539.94 237.61L539.94 172.61zM652.53 237.61L708.82 270.11L708.82 335.11L652.53 367.61L596.23 335.11L596.23 270.11zM652.53 627.61L708.82 660.11L708.82 725.11L652.53 757.61L596.23 725.11L596.23 660.11zM596.23 725.11L652.53 757.61L652.53 822.61L596.23 855.11L539.94 822.61L539.94 757.61zM596.23 920.11L652.53 952.61L652.53 1017.61L596.23 1050.11L539.94 1017.61L539.94 952.61zM652.53 1407.61L708.82 1440.11L708.82 1505.11L652.53 1537.61L596.23 1505.11L596.23 1440.11zM652.53 1602.61L708.82 1635.11L708.82 1700.11L652.53 1732.61L596.23 1700.11L596.23 1635.11zM652.53 1797.61L708.82 1830.11L708.82 1895.11L652.53 1927.61L596.23 1895.11L596.23 1830.11zM596.23 1895.11L652.53 1927.61L652.53 1992.61L596.23 2025.11L539.94 1992.61L539.94 1927.61zM596.23 2090.11L652.53 2122.61L652.53 2187.61L596.23 2220.11L539.94 2187.61L539.94 2122.61zM652.53 2187.61L708.82 2220.11L708.82 2285.11L652.53 2317.61L596.23 2285.11L596.23 2220.11zM596.23 2285.11L652.53 2317.61L652.53 2382.61L596.23 2415.11L539.94 2382.61L539.94 2317.61zM652.53 2382.61L708.82 2415.11L708.82 2480.11L652.53 2512.61L596.23 2480.11L596.23 2415.11zM652.53 2577.61L708.82 2610.11L708.82 2675.11L652.53 2707.61L596.23 2675.11L596.23 2610.11zM596.23 2675.11L652.53 2707.61L652.53 2772.61L596.23 2805.11L539.94 2772.61L539.94 2707.61zM652.53 2772.61L708.82 2805.11L708.82 2870.11L652.53 2902.61L596.23 2870.11L596.23 2805.11zM652.53 2967.61L708.82 3000.11L708.82 3065.11L652.53 3097.61L596.23 3065.11L596.23 3000.11zM765.11 42.61L821.41 75.11L821.41 140.11L765.11 172.61L708.82 140.11L708.82 75.11zM708.82 140.11L765.11 172.61L765.11 237.61L708.82 270.11L652.53 237.61L652.53 172.61zM765.11 432.61L821.41 465.11L821.41 530.11L765.11 562.61L708.82 530.11L708.82 465.11zM708.82 530.11L765.11 562.61L765.11 627.61L708.82 660.11L652.53 627.61L652.53 562.61zM765.11 627.61L821.41 660.11L821.41 725.11L765.11 757.61L708.82 725.11L708.82 660.11zM765.11 1017.61L821.41 1050.11L821.41 1115.11L765.11 1147.61L708.82 1115.11L708.82 1050.11zM765.11 1212.61L821.41 1245.11L821.41 1310.11L765.11 1342.61L708.82 1310.11L708.82 1245.11zM765.11 1992.61L821.41 2025.11L821.41 2090.11L765.11 2122.61L708.82 2090.11L708.82 2025.11zM708.82 2285.11L765.11 2317.61L765.11 2382.61L708.82 2415.11L652.53 2382.61L652.53 2317.61zM708.82 2675.11L765.11 2707.61L765.11 2772.61L708.82 2805.11L652.53 2772.61L652.53 2707.61z" stroke="rgba(29, 70, 216, 0.27)" stroke-width="2"></path>
        <path d="M83.09 237.61 a6.5 6.5 0 1 0 13 0 a6.5 6.5 0 1 0 -13 0zM139.39 270.11 a6.5 6.5 0 1 0 13 0 a6.5 6.5 0 1 0 -13 0zM139.39 335.11 a6.5 6.5 0 1 0 13 0 a6.5 6.5 0 1 0 -13 0zM83.09 367.61 a6.5 6.5 0 1 0 13 0 a6.5 6.5 0 1 0 -13 0zM26.8 335.11 a6.5 6.5 0 1 0 13 0 a6.5 6.5 0 1 0 -13 0zM26.8 270.11 a6.5 6.5 0 1 0 13 0 a6.5 6.5 0 1 0 -13 0zM83.09 432.61 a6.5 6.5 0 1 0 13 0 a6.5 6.5 0 1 0 -13 0zM139.39 465.11 a6.5 6.5 0 1 0 13 0 a6.5 6.5 0 1 0 -13 0zM139.39 530.11 a6.5 6.5 0 1 0 13 0 a6.5 6.5 0 1 0 -13 0zM83.09 562.61 a6.5 6.5 0 1 0 13 0 a6.5 6.5 0 1 0 -13 0zM26.8 530.11 a6.5 6.5 0 1 0 13 0 a6.5 6.5 0 1 0 -13 0zM26.8 465.11 a6.5 6.5 0 1 0 13 0 a6.5 6.5 0 1 0 -13 0zM26.8 725.11 a6.5 6.5 0 1 0 13 0 a6.5 6.5 0 1 0 -13 0zM83.09 757.61 a6.5 6.5 0 1 0 13 0 a6.5 6.5 0 1 0 -13 0zM83.09 822.61 a6.5 6.5 0 1 0 13 0 a6.5 6.5 0 1 0 -13 0zM26.8 855.11 a6.5 6.5 0 1 0 13 0 a6.5 6.5 0 1 0 -13 0zM-29.49 822.61 a6.5 6.5 0 1 0 13 0 a6.5 6.5 0 1 0 -13 0zM-29.49 757.61 a6.5 6.5 0 1 0 13 0 a6.5 6.5 0 1 0 -13 0zM26.8 920.11 a6.5 6.5 0 1 0 13 0 a6.5 6.5 0 1 0 -13 0zM83.09 952.61 a6.5 6.5 0 1 0 13 0 a6.5 6.5 0 1 0 -13 0zM83.09 1017.61 a6.5 6.5 0 1 0 13 0 a6.5 6.5 0 1 0 -13 0zM26.8 1050.11 a6.5 6.5 0 1 0 13 0 a6.5 6.5 0 1 0 -13 0zM-29.49 1017.61 a6.5 6.5 0 1 0 13 0 a6.5 6.5 0 1 0 -13 0zM-29.49 952.61 a6.5 6.5 0 1 0 13 0 a6.5 6.5 0 1 0 -13 0zM139.39 1050.11 a6.5 6.5 0 1 0 13 0 a6.5 6.5 0 1 0 -13 0zM139.39 1115.11 a6.5 6.5 0 1 0 13 0 a6.5 6.5 0 1 0 -13 0zM83.09 1147.61 a6.5 6.5 0 1 0 13 0 a6.5 6.5 0 1 0 -13 0zM26.8 1115.11 a6.5 6.5 0 1 0 13 0 a6.5 6.5 0 1 0 -13 0zM26.8 1895.11 a6.5 6.5 0 1 0 13 0 a6.5 6.5 0 1 0 -13 0zM83.09 1927.61 a6.5 6.5 0 1 0 13 0 a6.5 6.5 0 1 0 -13 0zM83.09 1992.61 a6.5 6.5 0 1 0 13 0 a6.5 6.5 0 1 0 -13 0zM26.8 2025.11 a6.5 6.5 0 1 0 13 0 a6.5 6.5 0 1 0 -13 0zM-29.49 1992.61 a6.5 6.5 0 1 0 13 0 a6.5 6.5 0 1 0 -13 0zM-29.49 1927.61 a6.5 6.5 0 1 0 13 0 a6.5 6.5 0 1 0 -13 0zM26.8 2090.11 a6.5 6.5 0 1 0 13 0 a6.5 6.5 0 1 0 -13 0zM83.09 2122.61 a6.5 6.5 0 1 0 13 0 a6.5 6.5 0 1 0 -13 0zM83.09 2187.61 a6.5 6.5 0 1 0 13 0 a6.5 6.5 0 1 0 -13 0zM26.8 2220.11 a6.5 6.5 0 1 0 13 0 a6.5 6.5 0 1 0 -13 0zM-29.49 2187.61 a6.5 6.5 0 1 0 13 0 a6.5 6.5 0 1 0 -13 0zM-29.49 2122.61 a6.5 6.5 0 1 0 13 0 a6.5 6.5 0 1 0 -13 0zM26.8 2285.11 a6.5 6.5 0 1 0 13 0 a6.5 6.5 0 1 0 -13 0zM83.09 2317.61 a6.5 6.5 0 1 0 13 0 a6.5 6.5 0 1 0 -13 0zM83.09 2382.61 a6.5 6.5 0 1 0 13 0 a6.5 6.5 0 1 0 -13 0zM26.8 2415.11 a6.5 6.5 0 1 0 13 0 a6.5 6.5 0 1 0 -13 0zM-29.49 2382.61 a6.5 6.5 0 1 0 13 0 a6.5 6.5 0 1 0 -13 0zM-29.49 2317.61 a6.5 6.5 0 1 0 13 0 a6.5 6.5 0 1 0 -13 0zM26.8 2480.11 a6.5 6.5 0 1 0 13 0 a6.5 6.5 0 1 0 -13 0zM83.09 2512.61 a6.5 6.5 0 1 0 13 0 a6.5 6.5 0 1 0 -13 0zM83.09 2577.61 a6.5 6.5 0 1 0 13 0 a6.5 6.5 0 1 0 -13 0zM26.8 2610.11 a6.5 6.5 0 1 0 13 0 a6.5 6.5 0 1 0 -13 0zM-29.49 2577.61 a6.5 6.5 0 1 0 13 0 a6.5 6.5 0 1 0 -13 0zM-29.49 2512.61 a6.5 6.5 0 1 0 13 0 a6.5 6.5 0 1 0 -13 0zM139.39 2610.11 a6.5 6.5 0 1 0 13 0 a6.5 6.5 0 1 0 -13 0zM139.39 2675.11 a6.5 6.5 0 1 0 13 0 a6.5 6.5 0 1 0 -13 0zM83.09 2707.61 a6.5 6.5 0 1 0 13 0 a6.5 6.5 0 1 0 -13 0zM26.8 2675.11 a6.5 6.5 0 1 0 13 0 a6.5 6.5 0 1 0 -13 0zM26.8 2870.11 a6.5 6.5 0 1 0 13 0 a6.5 6.5 0 1 0 -13 0zM83.09 2902.61 a6.5 6.5 0 1 0 13 0 a6.5 6.5 0 1 0 -13 0zM83.09 2967.61 a6.5 6.5 0 1 0 13 0 a6.5 6.5 0 1 0 -13 0zM26.8 3000.11 a6.5 6.5 0 1 0 13 0 a6.5 6.5 0 1 0 -13 0zM-29.49 2967.61 a6.5 6.5 0 1 0 13 0 a6.5 6.5 0 1 0 -13 0zM-29.49 2902.61 a6.5 6.5 0 1 0 13 0 a6.5 6.5 0 1 0 -13 0zM139.39 3000.11 a6.5 6.5 0 1 0 13 0 a6.5 6.5 0 1 0 -13 0zM139.39 3065.11 a6.5 6.5 0 1 0 13 0 a6.5 6.5 0 1 0 -13 0zM83.09 3097.61 a6.5 6.5 0 1 0 13 0 a6.5 6.5 0 1 0 -13 0zM26.8 3065.11 a6.5 6.5 0 1 0 13 0 a6.5 6.5 0 1 0 -13 0zM139.39 -54.89 a6.5 6.5 0 1 0 13 0 a6.5 6.5 0 1 0 -13 0zM195.68 -22.39 a6.5 6.5 0 1 0 13 0 a6.5 6.5 0 1 0 -13 0zM195.68 42.61 a6.5 6.5 0 1 0 13 0 a6.5 6.5 0 1 0 -13 0zM139.39 75.11 a6.5 6.5 0 1 0 13 0 a6.5 6.5 0 1 0 -13 0zM83.09 42.61 a6.5 6.5 0 1 0 13 0 a6.5 6.5 0 1 0 -13 0zM83.09 -22.39 a6.5 6.5 0 1 0 13 0 a6.5 6.5 0 1 0 -13 0zM251.97 75.11 a6.5 6.5 0 1 0 13 0 a6.5 6.5 0 1 0 -13 0zM251.97 140.11 a6.5 6.5 0 1 0 13 0 a6.5 6.5 0 1 0 -13 0zM195.68 172.61 a6.5 6.5 0 1 0 13 0 a6.5 6.5 0 1 0 -13 0zM139.39 140.11 a6.5 6.5 0 1 0 13 0 a6.5 6.5 0 1 0 -13 0zM195.68 367.61 a6.5 6.5 0 1 0 13 0 a6.5 6.5 0 1 0 -13 0zM195.68 432.61 a6.5 6.5 0 1 0 13 0 a6.5 6.5 0 1 0 -13 0zM195.68 562.61 a6.5 6.5 0 1 0 13 0 a6.5 6.5 0 1 0 -13 0zM195.68 627.61 a6.5 6.5 0 1 0 13 0 a6.5 6.5 0 1 0 -13 0zM139.39 660.11 a6.5 6.5 0 1 0 13 0 a6.5 6.5 0 1 0 -13 0zM83.09 627.61 a6.5 6.5 0 1 0 13 0 a6.5 6.5 0 1 0 -13 0zM195.68 1147.61 a6.5 6.5 0 1 0 13 0 a6.5 6.5 0 1 0 -13 0zM195.68 1212.61 a6.5 6.5 0 1 0 13 0 a6.5 6.5 0 1 0 -13 0zM139.39 1245.11 a6.5 6.5 0 1 0 13 0 a6.5 6.5 0 1 0 -13 0zM83.09 1212.61 a6.5 6.5 0 1 0 13 0 a6.5 6.5 0 1 0 -13 0zM251.97 1245.11 a6.5 6.5 0 1 0 13 0 a6.5 6.5 0 1 0 -13 0zM251.97 1310.11 a6.5 6.5 0 1 0 13 0 a6.5 6.5 0 1 0 -13 0zM195.68 1342.61 a6.5 6.5 0 1 0 13 0 a6.5 6.5 0 1 0 -13 0zM139.39 1310.11 a6.5 6.5 0 1 0 13 0 a6.5 6.5 0 1 0 -13 0zM195.68 1407.61 a6.5 6.5 0 1 0 13 0 a6.5 6.5 0 1 0 -13 0zM139.39 1440.11 a6.5 6.5 0 1 0 13 0 a6.5 6.5 0 1 0 -13 0zM83.09 1407.61 a6.5 6.5 0 1 0 13 0 a6.5 6.5 0 1 0 -13 0zM83.09 1342.61 a6.5 6.5 0 1 0 13 0 a6.5 6.5 0 1 0 -13 0zM251.97 1440.11 a6.5 6.5 0 1 0 13 0 a6.5 6.5 0 1 0 -13 0zM251.97 1505.11 a6.5 6.5 0 1 0 13 0 a6.5 6.5 0 1 0 -13 0zM195.68 1537.61 a6.5 6.5 0 1 0 13 0 a6.5 6.5 0 1 0 -13 0zM139.39 1505.11 a6.5 6.5 0 1 0 13 0 a6.5 6.5 0 1 0 -13 0zM195.68 1602.61 a6.5 6.5 0 1 0 13 0 a6.5 6.5 0 1 0 -13 0zM139.39 1635.11 a6.5 6.5 0 1 0 13 0 a6.5 6.5 0 1 0 -13 0zM83.09 1602.61 a6.5 6.5 0 1 0 13 0 a6.5 6.5 0 1 0 -13 0zM83.09 1537.61 a6.5 6.5 0 1 0 13 0 a6.5 6.5 0 1 0 -13 0zM139.39 1700.11 a6.5 6.5 0 1 0 13 0 a6.5 6.5 0 1 0 -13 0zM195.68 1732.61 a6.5 6.5 0 1 0 13 0 a6.5 6.5 0 1 0 -13 0zM195.68 1797.61 a6.5 6.5 0 1 0 13 0 a6.5 6.5 0 1 0 -13 0zM139.39 1830.11 a6.5 6.5 0 1 0 13 0 a6.5 6.5 0 1 0 -13 0zM83.09 1797.61 a6.5 6.5 0 1 0 13 0 a6.5 6.5 0 1 0 -13 0zM83.09 1732.61 a6.5 6.5 0 1 0 13 0 a6.5 6.5 0 1 0 -13 0zM251.97 1830.11 a6.5 6.5 0 1 0 13 0 a6.5 6.5 0 1 0 -13 0zM251.97 1895.11 a6.5 6.5 0 1 0 13 0 a6.5 6.5 0 1 0 -13 0zM195.68 1927.61 a6.5 6.5 0 1 0 13 0 a6.5 6.5 0 1 0 -13 0zM139.39 1895.11 a6.5 6.5 0 1 0 13 0 a6.5 6.5 0 1 0 -13 0zM195.68 2187.61 a6.5 6.5 0 1 0 13 0 a6.5 6.5 0 1 0 -13 0zM251.97 2220.11 a6.5 6.5 0 1 0 13 0 a6.5 6.5 0 1 0 -13 0zM251.97 2285.11 a6.5 6.5 0 1 0 13 0 a6.5 6.5 0 1 0 -13 0zM195.68 2317.61 a6.5 6.5 0 1 0 13 0 a6.5 6.5 0 1 0 -13 0zM139.39 2285.11 a6.5 6.5 0 1 0 13 0 a6.5 6.5 0 1 0 -13 0zM139.39 2220.11 a6.5 6.5 0 1 0 13 0 a6.5 6.5 0 1 0 -13 0zM195.68 2382.61 a6.5 6.5 0 1 0 13 0 a6.5 6.5 0 1 0 -13 0zM251.97 2415.11 a6.5 6.5 0 1 0 13 0 a6.5 6.5 0 1 0 -13 0zM251.97 2480.11 a6.5 6.5 0 1 0 13 0 a6.5 6.5 0 1 0 -13 0zM195.68 2512.61 a6.5 6.5 0 1 0 13 0 a6.5 6.5 0 1 0 -13 0zM139.39 2480.11 a6.5 6.5 0 1 0 13 0 a6.5 6.5 0 1 0 -13 0zM139.39 2415.11 a6.5 6.5 0 1 0 13 0 a6.5 6.5 0 1 0 -13 0zM308.27 42.61 a6.5 6.5 0 1 0 13 0 a6.5 6.5 0 1 0 -13 0zM364.56 75.11 a6.5 6.5 0 1 0 13 0 a6.5 6.5 0 1 0 -13 0zM364.56 140.11 a6.5 6.5 0 1 0 13 0 a6.5 6.5 0 1 0 -13 0zM308.27 172.61 a6.5 6.5 0 1 0 13 0 a6.5 6.5 0 1 0 -13 0zM308.27 432.61 a6.5 6.5 0 1 0 13 0 a6.5 6.5 0 1 0 -13 0zM364.56 465.11 a6.5 6.5 0 1 0 13 0 a6.5 6.5 0 1 0 -13 0zM364.56 530.11 a6.5 6.5 0 1 0 13 0 a6.5 6.5 0 1 0 -13 0zM308.27 562.61 a6.5 6.5 0 1 0 13 0 a6.5 6.5 0 1 0 -13 0zM251.97 530.11 a6.5 6.5 0 1 0 13 0 a6.5 6.5 0 1 0 -13 0zM251.97 465.11 a6.5 6.5 0 1 0 13 0 a6.5 6.5 0 1 0 -13 0zM251.97 725.11 a6.5 6.5 0 1 0 13 0 a6.5 6.5 0 1 0 -13 0zM308.27 757.61 a6.5 6.5 0 1 0 13 0 a6.5 6.5 0 1 0 -13 0zM308.27 822.61 a6.5 6.5 0 1 0 13 0 a6.5 6.5 0 1 0 -13 0zM251.97 855.11 a6.5 6.5 0 1 0 13 0 a6.5 6.5 0 1 0 -13 0zM195.68 822.61 a6.5 6.5 0 1 0 13 0 a6.5 6.5 0 1 0 -13 0zM195.68 757.61 a6.5 6.5 0 1 0 13 0 a6.5 6.5 0 1 0 -13 0zM308.27 1797.61 a6.5 6.5 0 1 0 13 0 a6.5 6.5 0 1 0 -13 0zM364.56 1830.11 a6.5 6.5 0 1 0 13 0 a6.5 6.5 0 1 0 -13 0zM364.56 1895.11 a6.5 6.5 0 1 0 13 0 a6.5 6.5 0 1 0 -13 0zM308.27 1927.61 a6.5 6.5 0 1 0 13 0 a6.5 6.5 0 1 0 -13 0zM308.27 2317.61 a6.5 6.5 0 1 0 13 0 a6.5 6.5 0 1 0 -13 0zM308.27 2382.61 a6.5 6.5 0 1 0 13 0 a6.5 6.5 0 1 0 -13 0zM364.56 2415.11 a6.5 6.5 0 1 0 13 0 a6.5 6.5 0 1 0 -13 0zM364.56 2480.11 a6.5 6.5 0 1 0 13 0 a6.5 6.5 0 1 0 -13 0zM308.27 2512.61 a6.5 6.5 0 1 0 13 0 a6.5 6.5 0 1 0 -13 0zM251.97 2675.11 a6.5 6.5 0 1 0 13 0 a6.5 6.5 0 1 0 -13 0zM308.27 2707.61 a6.5 6.5 0 1 0 13 0 a6.5 6.5 0 1 0 -13 0zM308.27 2772.61 a6.5 6.5 0 1 0 13 0 a6.5 6.5 0 1 0 -13 0zM251.97 2805.11 a6.5 6.5 0 1 0 13 0 a6.5 6.5 0 1 0 -13 0zM195.68 2772.61 a6.5 6.5 0 1 0 13 0 a6.5 6.5 0 1 0 -13 0zM195.68 2707.61 a6.5 6.5 0 1 0 13 0 a6.5 6.5 0 1 0 -13 0zM308.27 2967.61 a6.5 6.5 0 1 0 13 0 a6.5 6.5 0 1 0 -13 0zM364.56 3000.11 a6.5 6.5 0 1 0 13 0 a6.5 6.5 0 1 0 -13 0zM364.56 3065.11 a6.5 6.5 0 1 0 13 0 a6.5 6.5 0 1 0 -13 0zM308.27 3097.61 a6.5 6.5 0 1 0 13 0 a6.5 6.5 0 1 0 -13 0zM251.97 3065.11 a6.5 6.5 0 1 0 13 0 a6.5 6.5 0 1 0 -13 0zM251.97 3000.11 a6.5 6.5 0 1 0 13 0 a6.5 6.5 0 1 0 -13 0zM420.85 432.61 a6.5 6.5 0 1 0 13 0 a6.5 6.5 0 1 0 -13 0zM477.15 465.11 a6.5 6.5 0 1 0 13 0 a6.5 6.5 0 1 0 -13 0zM477.15 530.11 a6.5 6.5 0 1 0 13 0 a6.5 6.5 0 1 0 -13 0zM420.85 562.61 a6.5 6.5 0 1 0 13 0 a6.5 6.5 0 1 0 -13 0zM420.85 627.61 a6.5 6.5 0 1 0 13 0 a6.5 6.5 0 1 0 -13 0zM364.56 660.11 a6.5 6.5 0 1 0 13 0 a6.5 6.5 0 1 0 -13 0zM308.27 627.61 a6.5 6.5 0 1 0 13 0 a6.5 6.5 0 1 0 -13 0zM477.15 660.11 a6.5 6.5 0 1 0 13 0 a6.5 6.5 0 1 0 -13 0zM477.15 725.11 a6.5 6.5 0 1 0 13 0 a6.5 6.5 0 1 0 -13 0zM420.85 757.61 a6.5 6.5 0 1 0 13 0 a6.5 6.5 0 1 0 -13 0zM364.56 725.11 a6.5 6.5 0 1 0 13 0 a6.5 6.5 0 1 0 -13 0zM420.85 822.61 a6.5 6.5 0 1 0 13 0 a6.5 6.5 0 1 0 -13 0zM364.56 855.11 a6.5 6.5 0 1 0 13 0 a6.5 6.5 0 1 0 -13 0zM364.56 920.11 a6.5 6.5 0 1 0 13 0 a6.5 6.5 0 1 0 -13 0zM420.85 952.61 a6.5 6.5 0 1 0 13 0 a6.5 6.5 0 1 0 -13 0zM420.85 1017.61 a6.5 6.5 0 1 0 13 0 a6.5 6.5 0 1 0 -13 0zM364.56 1050.11 a6.5 6.5 0 1 0 13 0 a6.5 6.5 0 1 0 -13 0zM308.27 1017.61 a6.5 6.5 0 1 0 13 0 a6.5 6.5 0 1 0 -13 0zM308.27 952.61 a6.5 6.5 0 1 0 13 0 a6.5 6.5 0 1 0 -13 0zM477.15 1050.11 a6.5 6.5 0 1 0 13 0 a6.5 6.5 0 1 0 -13 0zM477.15 1115.11 a6.5 6.5 0 1 0 13 0 a6.5 6.5 0 1 0 -13 0zM420.85 1147.61 a6.5 6.5 0 1 0 13 0 a6.5 6.5 0 1 0 -13 0zM364.56 1115.11 a6.5 6.5 0 1 0 13 0 a6.5 6.5 0 1 0 -13 0zM420.85 1212.61 a6.5 6.5 0 1 0 13 0 a6.5 6.5 0 1 0 -13 0zM477.15 1245.11 a6.5 6.5 0 1 0 13 0 a6.5 6.5 0 1 0 -13 0zM477.15 1310.11 a6.5 6.5 0 1 0 13 0 a6.5 6.5 0 1 0 -13 0zM420.85 1342.61 a6.5 6.5 0 1 0 13 0 a6.5 6.5 0 1 0 -13 0zM364.56 1310.11 a6.5 6.5 0 1 0 13 0 a6.5 6.5 0 1 0 -13 0zM364.56 1245.11 a6.5 6.5 0 1 0 13 0 a6.5 6.5 0 1 0 -13 0zM420.85 1407.61 a6.5 6.5 0 1 0 13 0 a6.5 6.5 0 1 0 -13 0zM364.56 1440.11 a6.5 6.5 0 1 0 13 0 a6.5 6.5 0 1 0 -13 0zM308.27 1407.61 a6.5 6.5 0 1 0 13 0 a6.5 6.5 0 1 0 -13 0zM308.27 1342.61 a6.5 6.5 0 1 0 13 0 a6.5 6.5 0 1 0 -13 0zM477.15 1440.11 a6.5 6.5 0 1 0 13 0 a6.5 6.5 0 1 0 -13 0zM477.15 1505.11 a6.5 6.5 0 1 0 13 0 a6.5 6.5 0 1 0 -13 0zM420.85 1537.61 a6.5 6.5 0 1 0 13 0 a6.5 6.5 0 1 0 -13 0zM364.56 1505.11 a6.5 6.5 0 1 0 13 0 a6.5 6.5 0 1 0 -13 0zM420.85 1602.61 a6.5 6.5 0 1 0 13 0 a6.5 6.5 0 1 0 -13 0zM364.56 1635.11 a6.5 6.5 0 1 0 13 0 a6.5 6.5 0 1 0 -13 0zM308.27 1602.61 a6.5 6.5 0 1 0 13 0 a6.5 6.5 0 1 0 -13 0zM308.27 1537.61 a6.5 6.5 0 1 0 13 0 a6.5 6.5 0 1 0 -13 0zM364.56 2870.11 a6.5 6.5 0 1 0 13 0 a6.5 6.5 0 1 0 -13 0zM420.85 2902.61 a6.5 6.5 0 1 0 13 0 a6.5 6.5 0 1 0 -13 0zM420.85 2967.61 a6.5 6.5 0 1 0 13 0 a6.5 6.5 0 1 0 -13 0zM308.27 2902.61 a6.5 6.5 0 1 0 13 0 a6.5 6.5 0 1 0 -13 0zM533.44 432.61 a6.5 6.5 0 1 0 13 0 a6.5 6.5 0 1 0 -13 0zM589.73 465.11 a6.5 6.5 0 1 0 13 0 a6.5 6.5 0 1 0 -13 0zM589.73 530.11 a6.5 6.5 0 1 0 13 0 a6.5 6.5 0 1 0 -13 0zM533.44 562.61 a6.5 6.5 0 1 0 13 0 a6.5 6.5 0 1 0 -13 0zM533.44 627.61 a6.5 6.5 0 1 0 13 0 a6.5 6.5 0 1 0 -13 0zM589.73 660.11 a6.5 6.5 0 1 0 13 0 a6.5 6.5 0 1 0 -13 0zM589.73 725.11 a6.5 6.5 0 1 0 13 0 a6.5 6.5 0 1 0 -13 0zM533.44 757.61 a6.5 6.5 0 1 0 13 0 a6.5 6.5 0 1 0 -13 0zM533.44 822.61 a6.5 6.5 0 1 0 13 0 a6.5 6.5 0 1 0 -13 0zM477.15 855.11 a6.5 6.5 0 1 0 13 0 a6.5 6.5 0 1 0 -13 0zM589.73 855.11 a6.5 6.5 0 1 0 13 0 a6.5 6.5 0 1 0 -13 0zM589.73 920.11 a6.5 6.5 0 1 0 13 0 a6.5 6.5 0 1 0 -13 0zM533.44 952.61 a6.5 6.5 0 1 0 13 0 a6.5 6.5 0 1 0 -13 0zM477.15 920.11 a6.5 6.5 0 1 0 13 0 a6.5 6.5 0 1 0 -13 0zM533.44 1147.61 a6.5 6.5 0 1 0 13 0 a6.5 6.5 0 1 0 -13 0zM533.44 1212.61 a6.5 6.5 0 1 0 13 0 a6.5 6.5 0 1 0 -13 0zM589.73 1245.11 a6.5 6.5 0 1 0 13 0 a6.5 6.5 0 1 0 -13 0zM589.73 1310.11 a6.5 6.5 0 1 0 13 0 a6.5 6.5 0 1 0 -13 0zM533.44 1342.61 a6.5 6.5 0 1 0 13 0 a6.5 6.5 0 1 0 -13 0zM533.44 1537.61 a6.5 6.5 0 1 0 13 0 a6.5 6.5 0 1 0 -13 0zM533.44 1602.61 a6.5 6.5 0 1 0 13 0 a6.5 6.5 0 1 0 -13 0zM477.15 1635.11 a6.5 6.5 0 1 0 13 0 a6.5 6.5 0 1 0 -13 0zM533.44 1992.61 a6.5 6.5 0 1 0 13 0 a6.5 6.5 0 1 0 -13 0zM589.73 2025.11 a6.5 6.5 0 1 0 13 0 a6.5 6.5 0 1 0 -13 0zM589.73 2090.11 a6.5 6.5 0 1 0 13 0 a6.5 6.5 0 1 0 -13 0zM533.44 2122.61 a6.5 6.5 0 1 0 13 0 a6.5 6.5 0 1 0 -13 0zM477.15 2090.11 a6.5 6.5 0 1 0 13 0 a6.5 6.5 0 1 0 -13 0zM477.15 2025.11 a6.5 6.5 0 1 0 13 0 a6.5 6.5 0 1 0 -13 0zM477.15 2285.11 a6.5 6.5 0 1 0 13 0 a6.5 6.5 0 1 0 -13 0zM533.44 2317.61 a6.5 6.5 0 1 0 13 0 a6.5 6.5 0 1 0 -13 0zM533.44 2382.61 a6.5 6.5 0 1 0 13 0 a6.5 6.5 0 1 0 -13 0zM477.15 2415.11 a6.5 6.5 0 1 0 13 0 a6.5 6.5 0 1 0 -13 0zM420.85 2382.61 a6.5 6.5 0 1 0 13 0 a6.5 6.5 0 1 0 -13 0zM420.85 2317.61 a6.5 6.5 0 1 0 13 0 a6.5 6.5 0 1 0 -13 0zM477.15 2675.11 a6.5 6.5 0 1 0 13 0 a6.5 6.5 0 1 0 -13 0zM533.44 2707.61 a6.5 6.5 0 1 0 13 0 a6.5 6.5 0 1 0 -13 0zM533.44 2772.61 a6.5 6.5 0 1 0 13 0 a6.5 6.5 0 1 0 -13 0zM477.15 2805.11 a6.5 6.5 0 1 0 13 0 a6.5 6.5 0 1 0 -13 0zM420.85 2772.61 a6.5 6.5 0 1 0 13 0 a6.5 6.5 0 1 0 -13 0zM420.85 2707.61 a6.5 6.5 0 1 0 13 0 a6.5 6.5 0 1 0 -13 0zM589.73 2805.11 a6.5 6.5 0 1 0 13 0 a6.5 6.5 0 1 0 -13 0zM589.73 2870.11 a6.5 6.5 0 1 0 13 0 a6.5 6.5 0 1 0 -13 0zM533.44 2902.61 a6.5 6.5 0 1 0 13 0 a6.5 6.5 0 1 0 -13 0zM477.15 2870.11 a6.5 6.5 0 1 0 13 0 a6.5 6.5 0 1 0 -13 0zM533.44 2967.61 a6.5 6.5 0 1 0 13 0 a6.5 6.5 0 1 0 -13 0zM589.73 3000.11 a6.5 6.5 0 1 0 13 0 a6.5 6.5 0 1 0 -13 0zM589.73 3065.11 a6.5 6.5 0 1 0 13 0 a6.5 6.5 0 1 0 -13 0zM533.44 3097.61 a6.5 6.5 0 1 0 13 0 a6.5 6.5 0 1 0 -13 0zM477.15 3065.11 a6.5 6.5 0 1 0 13 0 a6.5 6.5 0 1 0 -13 0zM477.15 3000.11 a6.5 6.5 0 1 0 13 0 a6.5 6.5 0 1 0 -13 0zM589.73 -54.89 a6.5 6.5 0 1 0 13 0 a6.5 6.5 0 1 0 -13 0zM646.03 -22.39 a6.5 6.5 0 1 0 13 0 a6.5 6.5 0 1 0 -13 0zM646.03 42.61 a6.5 6.5 0 1 0 13 0 a6.5 6.5 0 1 0 -13 0zM589.73 75.11 a6.5 6.5 0 1 0 13 0 a6.5 6.5 0 1 0 -13 0zM533.44 42.61 a6.5 6.5 0 1 0 13 0 a6.5 6.5 0 1 0 -13 0zM533.44 -22.39 a6.5 6.5 0 1 0 13 0 a6.5 6.5 0 1 0 -13 0zM702.32 75.11 a6.5 6.5 0 1 0 13 0 a6.5 6.5 0 1 0 -13 0zM702.32 140.11 a6.5 6.5 0 1 0 13 0 a6.5 6.5 0 1 0 -13 0zM646.03 172.61 a6.5 6.5 0 1 0 13 0 a6.5 6.5 0 1 0 -13 0zM589.73 140.11 a6.5 6.5 0 1 0 13 0 a6.5 6.5 0 1 0 -13 0zM646.03 237.61 a6.5 6.5 0 1 0 13 0 a6.5 6.5 0 1 0 -13 0zM589.73 270.11 a6.5 6.5 0 1 0 13 0 a6.5 6.5 0 1 0 -13 0zM533.44 237.61 a6.5 6.5 0 1 0 13 0 a6.5 6.5 0 1 0 -13 0zM533.44 172.61 a6.5 6.5 0 1 0 13 0 a6.5 6.5 0 1 0 -13 0zM702.32 270.11 a6.5 6.5 0 1 0 13 0 a6.5 6.5 0 1 0 -13 0zM702.32 335.11 a6.5 6.5 0 1 0 13 0 a6.5 6.5 0 1 0 -13 0zM646.03 367.61 a6.5 6.5 0 1 0 13 0 a6.5 6.5 0 1 0 -13 0zM589.73 335.11 a6.5 6.5 0 1 0 13 0 a6.5 6.5 0 1 0 -13 0zM646.03 627.61 a6.5 6.5 0 1 0 13 0 a6.5 6.5 0 1 0 -13 0zM702.32 660.11 a6.5 6.5 0 1 0 13 0 a6.5 6.5 0 1 0 -13 0zM702.32 725.11 a6.5 6.5 0 1 0 13 0 a6.5 6.5 0 1 0 -13 0zM646.03 757.61 a6.5 6.5 0 1 0 13 0 a6.5 6.5 0 1 0 -13 0zM646.03 822.61 a6.5 6.5 0 1 0 13 0 a6.5 6.5 0 1 0 -13 0zM646.03 952.61 a6.5 6.5 0 1 0 13 0 a6.5 6.5 0 1 0 -13 0zM646.03 1017.61 a6.5 6.5 0 1 0 13 0 a6.5 6.5 0 1 0 -13 0zM589.73 1050.11 a6.5 6.5 0 1 0 13 0 a6.5 6.5 0 1 0 -13 0zM533.44 1017.61 a6.5 6.5 0 1 0 13 0 a6.5 6.5 0 1 0 -13 0zM646.03 1407.61 a6.5 6.5 0 1 0 13 0 a6.5 6.5 0 1 0 -13 0zM702.32 1440.11 a6.5 6.5 0 1 0 13 0 a6.5 6.5 0 1 0 -13 0zM702.32 1505.11 a6.5 6.5 0 1 0 13 0 a6.5 6.5 0 1 0 -13 0zM646.03 1537.61 a6.5 6.5 0 1 0 13 0 a6.5 6.5 0 1 0 -13 0zM589.73 1505.11 a6.5 6.5 0 1 0 13 0 a6.5 6.5 0 1 0 -13 0zM589.73 1440.11 a6.5 6.5 0 1 0 13 0 a6.5 6.5 0 1 0 -13 0zM646.03 1602.61 a6.5 6.5 0 1 0 13 0 a6.5 6.5 0 1 0 -13 0zM702.32 1635.11 a6.5 6.5 0 1 0 13 0 a6.5 6.5 0 1 0 -13 0zM702.32 1700.11 a6.5 6.5 0 1 0 13 0 a6.5 6.5 0 1 0 -13 0zM646.03 1732.61 a6.5 6.5 0 1 0 13 0 a6.5 6.5 0 1 0 -13 0zM589.73 1700.11 a6.5 6.5 0 1 0 13 0 a6.5 6.5 0 1 0 -13 0zM589.73 1635.11 a6.5 6.5 0 1 0 13 0 a6.5 6.5 0 1 0 -13 0zM646.03 1797.61 a6.5 6.5 0 1 0 13 0 a6.5 6.5 0 1 0 -13 0zM702.32 1830.11 a6.5 6.5 0 1 0 13 0 a6.5 6.5 0 1 0 -13 0zM702.32 1895.11 a6.5 6.5 0 1 0 13 0 a6.5 6.5 0 1 0 -13 0zM646.03 1927.61 a6.5 6.5 0 1 0 13 0 a6.5 6.5 0 1 0 -13 0zM589.73 1895.11 a6.5 6.5 0 1 0 13 0 a6.5 6.5 0 1 0 -13 0zM589.73 1830.11 a6.5 6.5 0 1 0 13 0 a6.5 6.5 0 1 0 -13 0zM646.03 1992.61 a6.5 6.5 0 1 0 13 0 a6.5 6.5 0 1 0 -13 0zM533.44 1927.61 a6.5 6.5 0 1 0 13 0 a6.5 6.5 0 1 0 -13 0zM646.03 2122.61 a6.5 6.5 0 1 0 13 0 a6.5 6.5 0 1 0 -13 0zM646.03 2187.61 a6.5 6.5 0 1 0 13 0 a6.5 6.5 0 1 0 -13 0zM589.73 2220.11 a6.5 6.5 0 1 0 13 0 a6.5 6.5 0 1 0 -13 0zM533.44 2187.61 a6.5 6.5 0 1 0 13 0 a6.5 6.5 0 1 0 -13 0zM702.32 2220.11 a6.5 6.5 0 1 0 13 0 a6.5 6.5 0 1 0 -13 0zM702.32 2285.11 a6.5 6.5 0 1 0 13 0 a6.5 6.5 0 1 0 -13 0zM646.03 2317.61 a6.5 6.5 0 1 0 13 0 a6.5 6.5 0 1 0 -13 0zM589.73 2285.11 a6.5 6.5 0 1 0 13 0 a6.5 6.5 0 1 0 -13 0zM646.03 2382.61 a6.5 6.5 0 1 0 13 0 a6.5 6.5 0 1 0 -13 0zM589.73 2415.11 a6.5 6.5 0 1 0 13 0 a6.5 6.5 0 1 0 -13 0zM702.32 2415.11 a6.5 6.5 0 1 0 13 0 a6.5 6.5 0 1 0 -13 0zM702.32 2480.11 a6.5 6.5 0 1 0 13 0 a6.5 6.5 0 1 0 -13 0zM646.03 2512.61 a6.5 6.5 0 1 0 13 0 a6.5 6.5 0 1 0 -13 0zM589.73 2480.11 a6.5 6.5 0 1 0 13 0 a6.5 6.5 0 1 0 -13 0zM646.03 2577.61 a6.5 6.5 0 1 0 13 0 a6.5 6.5 0 1 0 -13 0zM702.32 2610.11 a6.5 6.5 0 1 0 13 0 a6.5 6.5 0 1 0 -13 0zM702.32 2675.11 a6.5 6.5 0 1 0 13 0 a6.5 6.5 0 1 0 -13 0zM646.03 2707.61 a6.5 6.5 0 1 0 13 0 a6.5 6.5 0 1 0 -13 0zM589.73 2675.11 a6.5 6.5 0 1 0 13 0 a6.5 6.5 0 1 0 -13 0zM589.73 2610.11 a6.5 6.5 0 1 0 13 0 a6.5 6.5 0 1 0 -13 0zM646.03 2772.61 a6.5 6.5 0 1 0 13 0 a6.5 6.5 0 1 0 -13 0zM702.32 2805.11 a6.5 6.5 0 1 0 13 0 a6.5 6.5 0 1 0 -13 0zM702.32 2870.11 a6.5 6.5 0 1 0 13 0 a6.5 6.5 0 1 0 -13 0zM646.03 2902.61 a6.5 6.5 0 1 0 13 0 a6.5 6.5 0 1 0 -13 0zM646.03 2967.61 a6.5 6.5 0 1 0 13 0 a6.5 6.5 0 1 0 -13 0zM702.32 3000.11 a6.5 6.5 0 1 0 13 0 a6.5 6.5 0 1 0 -13 0zM702.32 3065.11 a6.5 6.5 0 1 0 13 0 a6.5 6.5 0 1 0 -13 0zM646.03 3097.61 a6.5 6.5 0 1 0 13 0 a6.5 6.5 0 1 0 -13 0zM758.61 42.61 a6.5 6.5 0 1 0 13 0 a6.5 6.5 0 1 0 -13 0zM814.91 75.11 a6.5 6.5 0 1 0 13 0 a6.5 6.5 0 1 0 -13 0zM814.91 140.11 a6.5 6.5 0 1 0 13 0 a6.5 6.5 0 1 0 -13 0zM758.61 172.61 a6.5 6.5 0 1 0 13 0 a6.5 6.5 0 1 0 -13 0zM758.61 237.61 a6.5 6.5 0 1 0 13 0 a6.5 6.5 0 1 0 -13 0zM758.61 432.61 a6.5 6.5 0 1 0 13 0 a6.5 6.5 0 1 0 -13 0zM814.91 465.11 a6.5 6.5 0 1 0 13 0 a6.5 6.5 0 1 0 -13 0zM814.91 530.11 a6.5 6.5 0 1 0 13 0 a6.5 6.5 0 1 0 -13 0zM758.61 562.61 a6.5 6.5 0 1 0 13 0 a6.5 6.5 0 1 0 -13 0zM702.32 530.11 a6.5 6.5 0 1 0 13 0 a6.5 6.5 0 1 0 -13 0zM702.32 465.11 a6.5 6.5 0 1 0 13 0 a6.5 6.5 0 1 0 -13 0zM758.61 627.61 a6.5 6.5 0 1 0 13 0 a6.5 6.5 0 1 0 -13 0zM646.03 562.61 a6.5 6.5 0 1 0 13 0 a6.5 6.5 0 1 0 -13 0zM814.91 660.11 a6.5 6.5 0 1 0 13 0 a6.5 6.5 0 1 0 -13 0zM814.91 725.11 a6.5 6.5 0 1 0 13 0 a6.5 6.5 0 1 0 -13 0zM758.61 757.61 a6.5 6.5 0 1 0 13 0 a6.5 6.5 0 1 0 -13 0zM758.61 1017.61 a6.5 6.5 0 1 0 13 0 a6.5 6.5 0 1 0 -13 0zM814.91 1050.11 a6.5 6.5 0 1 0 13 0 a6.5 6.5 0 1 0 -13 0zM814.91 1115.11 a6.5 6.5 0 1 0 13 0 a6.5 6.5 0 1 0 -13 0zM758.61 1147.61 a6.5 6.5 0 1 0 13 0 a6.5 6.5 0 1 0 -13 0zM702.32 1115.11 a6.5 6.5 0 1 0 13 0 a6.5 6.5 0 1 0 -13 0zM702.32 1050.11 a6.5 6.5 0 1 0 13 0 a6.5 6.5 0 1 0 -13 0zM758.61 1212.61 a6.5 6.5 0 1 0 13 0 a6.5 6.5 0 1 0 -13 0zM814.91 1245.11 a6.5 6.5 0 1 0 13 0 a6.5 6.5 0 1 0 -13 0zM814.91 1310.11 a6.5 6.5 0 1 0 13 0 a6.5 6.5 0 1 0 -13 0zM758.61 1342.61 a6.5 6.5 0 1 0 13 0 a6.5 6.5 0 1 0 -13 0zM702.32 1310.11 a6.5 6.5 0 1 0 13 0 a6.5 6.5 0 1 0 -13 0zM702.32 1245.11 a6.5 6.5 0 1 0 13 0 a6.5 6.5 0 1 0 -13 0zM758.61 1992.61 a6.5 6.5 0 1 0 13 0 a6.5 6.5 0 1 0 -13 0zM814.91 2025.11 a6.5 6.5 0 1 0 13 0 a6.5 6.5 0 1 0 -13 0zM814.91 2090.11 a6.5 6.5 0 1 0 13 0 a6.5 6.5 0 1 0 -13 0zM758.61 2122.61 a6.5 6.5 0 1 0 13 0 a6.5 6.5 0 1 0 -13 0zM702.32 2090.11 a6.5 6.5 0 1 0 13 0 a6.5 6.5 0 1 0 -13 0zM702.32 2025.11 a6.5 6.5 0 1 0 13 0 a6.5 6.5 0 1 0 -13 0zM758.61 2317.61 a6.5 6.5 0 1 0 13 0 a6.5 6.5 0 1 0 -13 0zM758.61 2382.61 a6.5 6.5 0 1 0 13 0 a6.5 6.5 0 1 0 -13 0zM758.61 2707.61 a6.5 6.5 0 1 0 13 0 a6.5 6.5 0 1 0 -13 0zM758.61 2772.61 a6.5 6.5 0 1 0 13 0 a6.5 6.5 0 1 0 -13 0z" fill="rgba(29, 70, 216, 0.27)"></path>
        <path d="M46.75 764.59L89.18 789.09L89.18 838.09L46.75 862.59L4.31 838.09L4.31 789.09zM46.75 2087.59L89.18 2112.09L89.18 2161.09L46.75 2185.59L4.31 2161.09L4.31 2112.09zM46.75 2969.59L89.18 2994.09L89.18 3043.09L46.75 3067.59L4.31 3043.09L4.31 2994.09zM89.18 -43.91L131.62 -19.41L131.62 29.59L89.18 54.09L46.75 29.59L46.75 -19.41zM131.62 29.59L174.06 54.09L174.06 103.09L131.62 127.59L89.18 103.09L89.18 54.09zM131.62 323.59L174.06 348.09L174.06 397.09L131.62 421.59L89.18 397.09L89.18 348.09zM131.62 1499.59L174.06 1524.09L174.06 1573.09L131.62 1597.59L89.18 1573.09L89.18 1524.09zM131.62 1940.59L174.06 1965.09L174.06 2014.09L131.62 2038.59L89.18 2014.09L89.18 1965.09zM89.18 2308.09L131.62 2332.59L131.62 2381.59L89.18 2406.09L46.75 2381.59L46.75 2332.59zM89.18 2896.09L131.62 2920.59L131.62 2969.59L89.18 2994.09L46.75 2969.59L46.75 2920.59zM216.49 29.59L258.93 54.09L258.93 103.09L216.49 127.59L174.06 103.09L174.06 54.09zM216.49 176.59L258.93 201.09L258.93 250.09L216.49 274.59L174.06 250.09L174.06 201.09zM174.06 250.09L216.49 274.59L216.49 323.59L174.06 348.09L131.62 323.59L131.62 274.59zM174.06 397.09L216.49 421.59L216.49 470.59L174.06 495.09L131.62 470.59L131.62 421.59zM216.49 764.59L258.93 789.09L258.93 838.09L216.49 862.59L174.06 838.09L174.06 789.09zM174.06 838.09L216.49 862.59L216.49 911.59L174.06 936.09L131.62 911.59L131.62 862.59zM174.06 1132.09L216.49 1156.59L216.49 1205.59L174.06 1230.09L131.62 1205.59L131.62 1156.59zM216.49 2087.59L258.93 2112.09L258.93 2161.09L216.49 2185.59L174.06 2161.09L174.06 2112.09zM174.06 2455.09L216.49 2479.59L216.49 2528.59L174.06 2553.09L131.62 2528.59L131.62 2479.59zM216.49 2528.59L258.93 2553.09L258.93 2602.09L216.49 2626.59L174.06 2602.09L174.06 2553.09zM174.06 2896.09L216.49 2920.59L216.49 2969.59L174.06 2994.09L131.62 2969.59L131.62 2920.59zM258.93 250.09L301.37 274.59L301.37 323.59L258.93 348.09L216.49 323.59L216.49 274.59zM258.93 397.09L301.37 421.59L301.37 470.59L258.93 495.09L216.49 470.59L216.49 421.59zM258.93 1132.09L301.37 1156.59L301.37 1205.59L258.93 1230.09L216.49 1205.59L216.49 1156.59zM301.37 1352.59L343.8 1377.09L343.8 1426.09L301.37 1450.59L258.93 1426.09L258.93 1377.09zM301.37 1499.59L343.8 1524.09L343.8 1573.09L301.37 1597.59L258.93 1573.09L258.93 1524.09zM258.93 1573.09L301.37 1597.59L301.37 1646.59L258.93 1671.09L216.49 1646.59L216.49 1597.59zM258.93 1867.09L301.37 1891.59L301.37 1940.59L258.93 1965.09L216.49 1940.59L216.49 1891.59zM301.37 2381.59L343.8 2406.09L343.8 2455.09L301.37 2479.59L258.93 2455.09L258.93 2406.09zM258.93 2602.09L301.37 2626.59L301.37 2675.59L258.93 2700.09L216.49 2675.59L216.49 2626.59zM386.24 764.59L428.67 789.09L428.67 838.09L386.24 862.59L343.8 838.09L343.8 789.09zM386.24 911.59L428.67 936.09L428.67 985.09L386.24 1009.59L343.8 985.09L343.8 936.09zM386.24 1058.59L428.67 1083.09L428.67 1132.09L386.24 1156.59L343.8 1132.09L343.8 1083.09zM386.24 1205.59L428.67 1230.09L428.67 1279.09L386.24 1303.59L343.8 1279.09L343.8 1230.09zM343.8 1720.09L386.24 1744.59L386.24 1793.59L343.8 1818.09L301.37 1793.59L301.37 1744.59zM386.24 1793.59L428.67 1818.09L428.67 1867.09L386.24 1891.59L343.8 1867.09L343.8 1818.09zM386.24 1940.59L428.67 1965.09L428.67 2014.09L386.24 2038.59L343.8 2014.09L343.8 1965.09zM386.24 2528.59L428.67 2553.09L428.67 2602.09L386.24 2626.59L343.8 2602.09L343.8 2553.09zM343.8 2602.09L386.24 2626.59L386.24 2675.59L343.8 2700.09L301.37 2675.59L301.37 2626.59zM386.24 2822.59L428.67 2847.09L428.67 2896.09L386.24 2920.59L343.8 2896.09L343.8 2847.09zM428.67 -43.91L471.11 -19.41L471.11 29.59L428.67 54.09L386.24 29.59L386.24 -19.41zM471.11 29.59L513.55 54.09L513.55 103.09L471.11 127.59L428.67 103.09L428.67 54.09zM471.11 323.59L513.55 348.09L513.55 397.09L471.11 421.59L428.67 397.09L428.67 348.09zM428.67 397.09L471.11 421.59L471.11 470.59L428.67 495.09L386.24 470.59L386.24 421.59zM428.67 691.09L471.11 715.59L471.11 764.59L428.67 789.09L386.24 764.59L386.24 715.59zM471.11 764.59L513.55 789.09L513.55 838.09L471.11 862.59L428.67 838.09L428.67 789.09zM471.11 1205.59L513.55 1230.09L513.55 1279.09L471.11 1303.59L428.67 1279.09L428.67 1230.09zM471.11 1352.59L513.55 1377.09L513.55 1426.09L471.11 1450.59L428.67 1426.09L428.67 1377.09zM428.67 1426.09L471.11 1450.59L471.11 1499.59L428.67 1524.09L386.24 1499.59L386.24 1450.59zM428.67 1720.09L471.11 1744.59L471.11 1793.59L428.67 1818.09L386.24 1793.59L386.24 1744.59zM428.67 1867.09L471.11 1891.59L471.11 1940.59L428.67 1965.09L386.24 1940.59L386.24 1891.59zM471.11 2822.59L513.55 2847.09L513.55 2896.09L471.11 2920.59L428.67 2896.09L428.67 2847.09zM555.98 911.59L598.42 936.09L598.42 985.09L555.98 1009.59L513.55 985.09L513.55 936.09zM555.98 2675.59L598.42 2700.09L598.42 2749.09L555.98 2773.59L513.55 2749.09L513.55 2700.09zM640.86 764.59L683.29 789.09L683.29 838.09L640.86 862.59L598.42 838.09L598.42 789.09zM640.86 1058.59L683.29 1083.09L683.29 1132.09L640.86 1156.59L598.42 1132.09L598.42 1083.09zM598.42 1132.09L640.86 1156.59L640.86 1205.59L598.42 1230.09L555.98 1205.59L555.98 1156.59zM640.86 1205.59L683.29 1230.09L683.29 1279.09L640.86 1303.59L598.42 1279.09L598.42 1230.09zM640.86 2087.59L683.29 2112.09L683.29 2161.09L640.86 2185.59L598.42 2161.09L598.42 2112.09zM598.42 2161.09L640.86 2185.59L640.86 2234.59L598.42 2259.09L555.98 2234.59L555.98 2185.59zM598.42 2308.09L640.86 2332.59L640.86 2381.59L598.42 2406.09L555.98 2381.59L555.98 2332.59zM683.29 397.09L725.73 421.59L725.73 470.59L683.29 495.09L640.86 470.59L640.86 421.59zM725.73 470.59L768.17 495.09L768.17 544.09L725.73 568.59L683.29 544.09L683.29 495.09zM683.29 544.09L725.73 568.59L725.73 617.59L683.29 642.09L640.86 617.59L640.86 568.59zM725.73 617.59L768.17 642.09L768.17 691.09L725.73 715.59L683.29 691.09L683.29 642.09zM683.29 691.09L725.73 715.59L725.73 764.59L683.29 789.09L640.86 764.59L640.86 715.59zM683.29 985.09L725.73 1009.59L725.73 1058.59L683.29 1083.09L640.86 1058.59L640.86 1009.59zM683.29 1426.09L725.73 1450.59L725.73 1499.59L683.29 1524.09L640.86 1499.59L640.86 1450.59zM683.29 2308.09L725.73 2332.59L725.73 2381.59L683.29 2406.09L640.86 2381.59L640.86 2332.59zM725.73 2675.59L768.17 2700.09L768.17 2749.09L725.73 2773.59L683.29 2749.09L683.29 2700.09zM725.73 2969.59L768.17 2994.09L768.17 3043.09L725.73 3067.59L683.29 3043.09L683.29 2994.09z" stroke="rgba(222, 32, 232, 0.49)" stroke-width="2"></path>
    </g>
    <defs>
        <mask id="SvgjsMask1114">
            <rect width="700" height="3000" fill="#ffffff"></rect>
        </mask>
        <linearGradient x1="182.14%" y1="80.83%" x2="-82.14%" y2="19.17%" gradientUnits="userSpaceOnUse" id="SvgjsLinearGradient1115">
            <stop stop-color="#0e2a47" offset="0"></stop>
            <stop stop-color="rgba(0, 69, 158, 1)" offset="0.72"></stop>
        </linearGradient>
    </defs>
</svg>